<mxfile host="app.diagrams.net" modified="2021-03-27T13:58:33.613Z" agent="5.0 (Windows NT 10.0; Win64; x64) AppleWebKit/537.36 (KHTML, like Gecko) Chrome/89.0.4389.90 Safari/537.36" etag="TTksztRwxifjQpwPplkT" version="14.5.3" type="github">
  <diagram id="kgpKYQtTHZ0yAKxKKP6v" name="Page-1">
    <mxGraphModel dx="1038" dy="548" grid="1" gridSize="10" guides="1" tooltips="1" connect="1" arrows="1" fold="1" page="1" pageScale="1" pageWidth="850" pageHeight="1100" math="0" shadow="0">
      <root>
        <mxCell id="0" />
        <mxCell id="1" parent="0" />
        <mxCell id="qYhOaUoZgo6TbX7D6caA-1" value="Napvihar" style="shape=umlFrame;whiteSpace=wrap;html=1;" parent="1" vertex="1">
          <mxGeometry y="40" width="630" height="370" as="geometry" />
        </mxCell>
        <mxCell id="udtk0rQgKIqHK6SZ004D-14" value="loop" style="shape=umlFrame;whiteSpace=wrap;html=1;" vertex="1" parent="1">
          <mxGeometry x="50" y="210" width="560" height="120" as="geometry" />
        </mxCell>
        <mxCell id="3nuBFxr9cyL0pnOWT2aG-1" value="p:Palya" style="shape=umlLifeline;perimeter=lifelinePerimeter;container=1;collapsible=0;recursiveResize=0;rounded=0;shadow=0;strokeWidth=1;" parent="1" vertex="1">
          <mxGeometry x="130" y="60" width="100" height="340" as="geometry" />
        </mxCell>
        <mxCell id="3nuBFxr9cyL0pnOWT2aG-2" value="" style="points=[];perimeter=orthogonalPerimeter;rounded=0;shadow=0;strokeWidth=1;" parent="3nuBFxr9cyL0pnOWT2aG-1" vertex="1">
          <mxGeometry x="45" y="100" width="10" height="230" as="geometry" />
        </mxCell>
        <mxCell id="fCaX27pMjF2Q6U7E_pNl-6" value="1: Napvihar()" style="endArrow=classic;html=1;entryX=-0.1;entryY=0.017;entryDx=0;entryDy=0;entryPerimeter=0;" parent="1" source="DWb4yrl4T6a_XLaV9Whn-1" target="3nuBFxr9cyL0pnOWT2aG-2" edge="1">
          <mxGeometry x="-0.0016" y="16" width="50" height="50" relative="1" as="geometry">
            <mxPoint x="10" y="148" as="sourcePoint" />
            <mxPoint x="182" y="130" as="targetPoint" />
            <mxPoint y="-1" as="offset" />
          </mxGeometry>
        </mxCell>
        <mxCell id="3nuBFxr9cyL0pnOWT2aG-5" value="a:Aszteroida" style="shape=umlLifeline;perimeter=lifelinePerimeter;container=1;collapsible=0;recursiveResize=0;rounded=0;shadow=0;strokeWidth=1;" parent="1" vertex="1">
          <mxGeometry x="350" y="60" width="100" height="350" as="geometry" />
        </mxCell>
        <mxCell id="udtk0rQgKIqHK6SZ004D-11" value="" style="html=1;points=[];perimeter=orthogonalPerimeter;" vertex="1" parent="3nuBFxr9cyL0pnOWT2aG-5">
          <mxGeometry x="45" y="110" width="10" height="30" as="geometry" />
        </mxCell>
        <mxCell id="fCaX27pMjF2Q6U7E_pNl-23" value="" style="endArrow=classic;html=1;dashed=1;exitX=0.133;exitY=0.978;exitDx=0;exitDy=0;exitPerimeter=0;" parent="1" source="3nuBFxr9cyL0pnOWT2aG-2" target="DWb4yrl4T6a_XLaV9Whn-1" edge="1">
          <mxGeometry width="50" height="50" relative="1" as="geometry">
            <mxPoint x="104.02999999999992" y="489.99999999999994" as="sourcePoint" />
            <mxPoint x="30" y="463" as="targetPoint" />
          </mxGeometry>
        </mxCell>
        <mxCell id="DWb4yrl4T6a_XLaV9Whn-1" value="Controller" style="shape=umlLifeline;participant=umlActor;perimeter=lifelinePerimeter;whiteSpace=wrap;html=1;container=1;collapsible=0;recursiveResize=0;verticalAlign=top;spacingTop=36;outlineConnect=0;" parent="1" vertex="1">
          <mxGeometry x="20" y="82.5" width="20" height="317.5" as="geometry" />
        </mxCell>
        <mxCell id="HxhQ-If_rGnkGe59fYsZ-8" value="szomszed: Mezo" style="shape=umlLifeline;perimeter=lifelinePerimeter;whiteSpace=wrap;html=1;container=1;collapsible=0;recursiveResize=0;outlineConnect=0;" parent="1" vertex="1">
          <mxGeometry x="500" y="60" width="100" height="340" as="geometry" />
        </mxCell>
        <mxCell id="udtk0rQgKIqHK6SZ004D-6" value="" style="html=1;points=[];perimeter=orthogonalPerimeter;" vertex="1" parent="HxhQ-If_rGnkGe59fYsZ-8">
          <mxGeometry x="45" y="200" width="10" height="40" as="geometry" />
        </mxCell>
        <mxCell id="udtk0rQgKIqHK6SZ004D-7" value="4: Napvihar()" style="html=1;verticalAlign=bottom;endArrow=block;entryX=0;entryY=0;" edge="1" target="udtk0rQgKIqHK6SZ004D-6" parent="1" source="3nuBFxr9cyL0pnOWT2aG-2">
          <mxGeometry relative="1" as="geometry">
            <mxPoint x="430" y="390" as="sourcePoint" />
          </mxGeometry>
        </mxCell>
        <mxCell id="udtk0rQgKIqHK6SZ004D-8" value="" style="html=1;verticalAlign=bottom;endArrow=open;dashed=1;endSize=8;exitX=0;exitY=0.95;" edge="1" source="udtk0rQgKIqHK6SZ004D-6" parent="1" target="3nuBFxr9cyL0pnOWT2aG-2">
          <mxGeometry relative="1" as="geometry">
            <mxPoint x="430" y="466" as="targetPoint" />
          </mxGeometry>
        </mxCell>
        <mxCell id="udtk0rQgKIqHK6SZ004D-12" value="2: GetSzomszedok()" style="html=1;verticalAlign=bottom;endArrow=block;entryX=0;entryY=0;" edge="1" target="udtk0rQgKIqHK6SZ004D-11" parent="1" source="3nuBFxr9cyL0pnOWT2aG-2">
          <mxGeometry relative="1" as="geometry">
            <mxPoint x="325" y="150" as="sourcePoint" />
          </mxGeometry>
        </mxCell>
        <mxCell id="udtk0rQgKIqHK6SZ004D-13" value="szomszedok" style="html=1;verticalAlign=bottom;endArrow=open;dashed=1;endSize=8;exitX=0;exitY=0.95;" edge="1" source="udtk0rQgKIqHK6SZ004D-11" parent="1" target="3nuBFxr9cyL0pnOWT2aG-2">
          <mxGeometry relative="1" as="geometry">
            <mxPoint x="325" y="226" as="targetPoint" />
          </mxGeometry>
        </mxCell>
        <mxCell id="udtk0rQgKIqHK6SZ004D-15" value="[for each mezo in {szomszedok + a}]" style="text;html=1;strokeColor=none;fillColor=none;align=center;verticalAlign=middle;whiteSpace=wrap;rounded=0;" vertex="1" parent="1">
          <mxGeometry x="50" y="250" width="120" height="20" as="geometry" />
        </mxCell>
      </root>
    </mxGraphModel>
  </diagram>
</mxfile>
